<?xml version="1.0" standalone="no"?><!DOCTYPE svg PUBLIC "-//W3C//DTD SVG 1.1//EN" "http://www.w3.org/Graphics/SVG/1.1/DTD/svg11.dtd"><svg t="1731764600689" class="icon" viewBox="0 0 1024 1024" version="1.1" xmlns="http://www.w3.org/2000/svg" p-id="10185" xmlns:xlink="http://www.w3.org/1999/xlink" width="200" height="200"><path d="M881.493333 673.92a11.733333 11.733333 0 0 0 11.306667-14.293333l-50.986667-213.333334a333.226667 333.226667 0 0 0-34.133333-87.04c19.2-176.64-26.24-304.853333-74.453333-313.173333-42.666667-7.04-123.306667 104.746667-152.32 147.2a331.946667 331.946667 0 0 0-138.026667 0c-29.013333-42.666667-110.506667-154.24-152.106667-147.2-48.213333 8.32-93.866667 136.533333-74.666666 313.173333a332.8 332.8 0 0 0-33.92 87.04l-50.986667 213.333334a11.733333 11.733333 0 0 0 11.306667 14.293333H187.733333a11.733333 11.733333 0 0 1 11.52 14.293333L190.506667 725.333333a11.733333 11.733333 0 0 0 14.506666 13.866667l68.053334-18.986667a42.666667 42.666667 0 0 1 52.053333 25.813334c39.893333 100.266667 90.24 161.493333 186.88 161.493333s146.773333-61.226667 186.88-161.493333a42.666667 42.666667 0 0 1 51.84-25.813334l68.266667 18.986667a11.52 11.52 0 0 0 14.293333-13.866667l-8.533333-36.266666a11.733333 11.733333 0 0 1 11.306666-14.293334z" fill="#FFAA54" p-id="10186"></path><path d="M290.773333 120.106667c35.84-6.186667 100.906667 75.52 136.96 125.44a42.666667 42.666667 0 0 0 40.32 17.493333 330.24 330.24 0 0 1 43.946667-3.2 335.573333 335.573333 0 0 1 43.946667 3.2 42.666667 42.666667 0 0 0 40.106666-17.493333c36.266667-49.92 101.333333-131.626667 137.173334-125.44s71.68 81.706667 77.44 195.2c8.106667-154.026667-33.92-262.613333-78.08-270.08S609.92 149.333333 580.906667 192a331.946667 331.946667 0 0 0-138.026667 0c-29.013333-42.666667-110.506667-154.24-152.106667-147.2S204.586667 161.28 213.333333 315.306667c5.546667-113.493333 40.746667-189.013333 77.44-195.2z" fill="#FFCC99" p-id="10187"></path><path d="M490.666667 685.866667s-106.666667-94.506667-224.426667-122.24a160.213333 160.213333 0 0 0-193.706667 95.146666 10.453333 10.453333 0 0 0 8.533334 14.72 221.866667 221.866667 0 0 1 69.973333 17.28 21.333333 21.333333 0 0 1 12.373333 23.04 260.48 260.48 0 0 0 0 85.333334 9.813333 9.813333 0 0 0 15.36 6.613333 379.946667 379.946667 0 0 1 99.626667-49.92 43.946667 43.946667 0 0 1 52.266667 21.333333c28.16 49.28 91.52 130.346667 181.333333 130.346667s153.173333-81.066667 181.12-130.346667a44.16 44.16 0 0 1 52.48-21.333333 378.88 378.88 0 0 1 99.413333 49.92 10.026667 10.026667 0 0 0 15.573334-6.613333 253.653333 253.653333 0 0 0 0-85.333334 21.333333 21.333333 0 0 1 12.373333-23.04 223.573333 223.573333 0 0 1 69.973333-17.28 10.666667 10.666667 0 0 0 8.746667-14.72 160.426667 160.426667 0 0 0-193.92-95.146666C640 591.36 533.333333 685.866667 533.333333 685.866667z" fill="#F0F0F0" p-id="10188"></path><path d="M80.426667 673.493333l11.733333 1.706667a157.44 157.44 0 0 1 173.44-59.733333C384 643.413333 490.666667 737.92 490.666667 737.92h42.666666s106.666667-94.506667 224.426667-122.453333a157.44 157.44 0 0 1 173.44 59.733333l11.733333-1.706667a10.666667 10.666667 0 0 0 8.746667-14.72 160.426667 160.426667 0 0 0-193.92-95.146666C640 591.36 533.333333 685.866667 533.333333 685.866667h-42.666666s-106.666667-94.506667-224.426667-122.24a160.213333 160.213333 0 0 0-193.706667 95.146666 10.453333 10.453333 0 0 0 7.893334 14.72z" fill="#FFFFFF" p-id="10189"></path><path d="M266.666667 970.666667a245.333333 32 0 1 0 490.666666 0 245.333333 32 0 1 0-490.666666 0Z" fill="#45413C" p-id="10190"></path><path d="M664.32 511.146667m-28.8 0a28.8 28.8 0 1 0 57.6 0 28.8 28.8 0 1 0-57.6 0Z" fill="#45413C" p-id="10191"></path><path d="M359.466667 511.146667m-28.8 0a28.8 28.8 0 1 0 57.6 0 28.8 28.8 0 1 0-57.6 0Z" fill="#45413C" p-id="10192"></path><path d="M789.333333 657.28c0 11.733333-14.293333 21.333333-32 21.333333s-32-9.6-32-21.333333 14.293333-21.333333 32-21.333333 32 9.6 32 21.333333zM298.666667 657.28c0 11.733333-14.293333 21.333333-32 21.333333s-32-9.6-32-21.333333 14.293333-21.333333 32-21.333333 32 9.6 32 21.333333z" fill="#FFCCDD" p-id="10193"></path><path d="M570.026667 708.693333A64 64 0 0 1 512 768a64 64 0 0 1-58.026667-58.24c0-24.106667 26.026667-29.013333 58.026667-29.013333s58.026667 3.84 58.026667 27.946666z" fill="#656769" p-id="10194"></path><path d="M512 712.96c24.32 0 45.013333 2.986667 53.76 14.72a45.653333 45.653333 0 0 0 4.48-18.986667c0-24.106667-26.026667-29.013333-58.24-29.013333s-58.026667 4.906667-58.026667 29.013333a48.64 48.64 0 0 0 4.266667 18.986667c8.533333-11.733333 29.44-14.72 53.76-14.72z" fill="#87898C" p-id="10195"></path><path d="M381.866667 234.666667a10.453333 10.453333 0 0 0 5.333333-14.72c-14.933333-27.946667-54.4-95.36-79.36-96-28.16 0-47.573333 104.32-36.906667 186.026666a10.666667 10.666667 0 0 0 19.413334 4.266667A209.28 209.28 0 0 1 381.866667 234.666667z" fill="#FFA694" p-id="10196"></path><path d="M307.84 171.733333c18.346667 0 44.8 37.333333 64 67.626667a117.333333 117.333333 0 0 1 10.026667-4.693333 10.453333 10.453333 0 0 0 5.333333-14.72c-14.933333-27.946667-54.4-95.36-79.36-96s-42.666667 85.333333-39.253333 161.493333c3.413333-60.586667 19.2-114.773333 39.253333-113.706667z" fill="#FF866E" p-id="10197"></path><path d="M642.133333 234.666667a10.453333 10.453333 0 0 1-5.546666-14.72c14.933333-27.306667 54.4-94.933333 79.573333-95.573334s47.573333 104.32 36.906667 186.026667a10.88 10.88 0 0 1-19.626667 4.266667A209.066667 209.066667 0 0 0 642.133333 234.666667z" fill="#FFA694" p-id="10198"></path><path d="M715.946667 171.733333c-18.346667 0-44.586667 37.333333-64 67.626667L642.133333 234.666667a10.453333 10.453333 0 0 1-5.546666-14.72c14.933333-27.306667 54.4-94.933333 79.36-95.573334s42.666667 85.333333 39.253333 161.493334c-3.413333-61.013333-18.986667-115.2-39.253333-114.133334z" fill="#FF866E" p-id="10199"></path></svg>